<svg width="20" height="21" viewBox="0 0 20 21" fill="none" xmlns="http://www.w3.org/2000/svg">
<path d="M15.7918 12.6893C15.3823 12.263 14.8884 12.035 14.365 12.035C13.8458 12.035 13.3477 12.2587 12.9214 12.6851L11.5875 14.0147C11.4778 13.9556 11.368 13.9008 11.2625 13.8459C11.1105 13.7699 10.967 13.6981 10.8446 13.6222C9.59513 12.8286 8.45964 11.7944 7.37059 10.4563C6.84295 9.78937 6.48837 9.22796 6.23088 8.65811C6.57702 8.34152 6.89782 8.01227 7.21019 7.69569C7.32838 7.5775 7.44657 7.45508 7.56476 7.33689C8.4512 6.45045 8.4512 5.3023 7.56476 4.41586L6.41239 3.26349C6.28154 3.13264 6.14646 2.99756 6.01983 2.86249C5.76656 2.60078 5.50063 2.33062 5.22625 2.07736C4.8168 1.67213 4.32715 1.45685 3.81217 1.45685C3.29719 1.45685 2.7991 1.67213 2.37698 2.07736C2.37276 2.08158 2.37276 2.08158 2.36854 2.0858L0.933356 3.53365C0.39305 4.07395 0.0849075 4.73245 0.0173694 5.49648C-0.0839379 6.72905 0.27908 7.8772 0.557675 8.62856C1.2415 10.4732 2.26301 12.1828 3.78684 14.0147C5.6357 16.2224 7.86024 17.9657 10.4014 19.1941C11.3722 19.6542 12.6681 20.1987 14.116 20.2916C14.2046 20.2958 14.2975 20.3 14.3819 20.3C15.357 20.3 16.1759 19.9496 16.8175 19.2532C16.8217 19.2447 16.8302 19.2405 16.8344 19.2321C17.0539 18.9661 17.3071 18.7255 17.5731 18.468C17.7546 18.295 17.9403 18.1135 18.1218 17.9235C18.5397 17.4887 18.7592 16.9822 18.7592 16.463C18.7592 15.9396 18.5355 15.4373 18.1092 15.0151L15.7918 12.6893ZM17.3029 17.1342C17.2987 17.1342 17.2987 17.1384 17.3029 17.1342C17.1383 17.3114 16.9695 17.4718 16.7879 17.6491C16.5136 17.9108 16.235 18.1852 15.9733 18.4934C15.5469 18.9492 15.0446 19.1645 14.3861 19.1645C14.3228 19.1645 14.2553 19.1645 14.1919 19.1603C12.9383 19.0801 11.7732 18.5904 10.8995 18.1726C8.5103 17.016 6.41239 15.3739 4.66906 13.2929C3.22965 11.558 2.26724 9.954 1.62984 8.23177C1.23728 7.18071 1.09376 6.36181 1.15708 5.58934C1.19929 5.09547 1.38924 4.68602 1.73959 4.33566L3.179 2.89626C3.38584 2.70208 3.60534 2.59655 3.82061 2.59655C4.08655 2.59655 4.30182 2.75696 4.4369 2.89203C4.44112 2.89626 4.44534 2.90048 4.44956 2.9047C4.70705 3.1453 4.95188 3.39435 5.20937 3.66028C5.34022 3.79536 5.4753 3.93043 5.61038 4.06973L6.76275 5.2221C7.21019 5.66954 7.21019 6.08321 6.76275 6.53065C6.64033 6.65307 6.52214 6.77548 6.39973 6.89367C6.04515 7.25669 5.70746 7.59438 5.34022 7.92363C5.33178 7.93207 5.32334 7.93629 5.31912 7.94474C4.9561 8.30775 5.02364 8.66233 5.09962 8.90293C5.10384 8.9156 5.10806 8.92826 5.11228 8.94092C5.41198 9.66696 5.8341 10.3508 6.47571 11.1655L6.47993 11.1697C7.64496 12.6049 8.87331 13.7235 10.2283 14.5804C10.4014 14.6901 10.5787 14.7788 10.7475 14.8632C10.8995 14.9392 11.043 15.0109 11.1654 15.0869C11.1823 15.0953 11.1992 15.108 11.216 15.1164C11.3596 15.1882 11.4946 15.222 11.6339 15.222C11.9843 15.222 12.2038 15.0025 12.2756 14.9307L13.7192 13.4871C13.8627 13.3436 14.0906 13.1705 14.3566 13.1705C14.6183 13.1705 14.8336 13.3351 14.9644 13.4786C14.9686 13.4829 14.9686 13.4829 14.9729 13.4871L17.2987 15.8129C17.7335 16.2435 17.7335 16.6867 17.3029 17.1342Z" fill="#184F68"/>
<path d="M10.794 5.05745C11.9 5.24318 12.9046 5.7666 13.7066 6.56862C14.5086 7.37064 15.0278 8.37527 15.2178 9.48121C15.2642 9.7598 15.5048 9.95397 15.7792 9.95397C15.8129 9.95397 15.8425 9.94975 15.8763 9.94553C16.1886 9.89488 16.3955 9.5994 16.3448 9.28703C16.1169 7.94893 15.4837 6.72902 14.5171 5.76238C13.5504 4.79574 12.3305 4.16257 10.9924 3.93463C10.68 3.88398 10.3888 4.09081 10.3339 4.39896C10.279 4.7071 10.4816 5.0068 10.794 5.05745Z" fill="#184F68"/>
<path d="M19.9622 9.12241C19.5865 6.91898 18.5481 4.91394 16.9525 3.31835C15.3569 1.72276 13.3519 0.684357 11.1485 0.308676C10.8403 0.253801 10.5491 0.464858 10.4942 0.773001C10.4435 1.08536 10.6504 1.37662 10.9627 1.4315C12.9298 1.76497 14.7238 2.69784 16.1505 4.12036C17.5773 5.54711 18.5059 7.34109 18.8394 9.30814C18.8858 9.58673 19.1264 9.78091 19.4008 9.78091C19.4346 9.78091 19.4641 9.77669 19.4979 9.77246C19.806 9.72603 20.0171 9.43055 19.9622 9.12241Z" fill="#184F68"/>
</svg>
