<svg width="16" height="17" viewBox="0 0 16 17" fill="none" xmlns="http://www.w3.org/2000/svg">
<path d="M7.83333 15.3C6.80667 15.3 2 10.6333 2 6.83333C2 5.28624 2.61458 3.80251 3.70854 2.70854C4.80251 1.61458 6.28624 1 7.83333 1C9.38043 1 10.8642 1.61458 11.9581 2.70854C13.0521 3.80251 13.6667 5.28624 13.6667 6.83333C13.6667 10.6467 8.86 15.3 7.83333 15.3ZM7.83333 1.99333C6.55084 1.9951 5.32148 2.50581 4.41525 3.41329C3.50901 4.32078 3 5.55084 3 6.83333C3 9.99333 6.94 13.86 7.83333 14.28C8.72667 13.86 12.6667 9.99333 12.6667 6.83333C12.6667 5.55084 12.1577 4.32078 11.2514 3.41329C10.3452 2.50581 9.11583 1.9951 7.83333 1.99333Z" fill="#4C4C4C"/>
<path d="M7.83333 9.63334C7.27295 9.63334 6.72516 9.46717 6.25922 9.15584C5.79328 8.84451 5.43012 8.402 5.21568 7.88428C5.00123 7.36656 4.94512 6.79687 5.05444 6.24725C5.16377 5.69764 5.43362 5.19279 5.82987 4.79654C6.22611 4.40029 6.73097 4.13044 7.28058 4.02112C7.83019 3.91179 8.39988 3.9679 8.9176 4.18235C9.43533 4.3968 9.87783 4.75995 10.1892 5.22589C10.5005 5.69183 10.6667 6.23963 10.6667 6.80001C10.6649 7.55092 10.3658 8.27056 9.83486 8.80153C9.30389 9.33251 8.58424 9.63158 7.83333 9.63334ZM7.83333 4.96668C7.47074 4.96668 7.11628 5.0742 6.81479 5.27565C6.5133 5.4771 6.27832 5.76343 6.13956 6.09842C6.00079 6.43342 5.96449 6.80204 6.03523 7.15767C6.10597 7.51331 6.28058 7.83998 6.53697 8.09637C6.79337 8.35277 7.12004 8.52738 7.47567 8.59812C7.8313 8.66886 8.19992 8.63255 8.53492 8.49379C8.86992 8.35503 9.15625 8.12004 9.3577 7.81855C9.55914 7.51706 9.66667 7.16261 9.66667 6.80001C9.66667 6.31378 9.47351 5.84746 9.1297 5.50365C8.78588 5.15983 8.31956 4.96668 7.83333 4.96668Z" fill="#4C4C4C"/>
</svg>
