<svg width="21" height="22" viewBox="0 0 21 22" fill="none" xmlns="http://www.w3.org/2000/svg">
<path fill-rule="evenodd" clip-rule="evenodd" d="M18.3434 13.9307C18.3434 15.6196 16.9696 16.9912 15.2829 16.9912H5.24156C3.55481 16.9912 2.18094 15.6195 2.18094 13.9307V7.54151C2.18094 6.97784 2.33527 6.44843 2.60316 5.99405L7.5027 10.8936C8.2357 11.6287 9.21731 12.0338 10.2632 12.0338C11.307 12.0338 12.2886 11.6287 13.0216 10.8936L17.9212 5.99405C18.1891 6.44843 18.3434 6.9778 18.3434 7.54151V13.9307H18.3434ZM15.2828 4.48093H5.24156C4.545 4.48093 3.90199 4.71667 3.38762 5.10889L8.33645 10.0599C8.84871 10.5699 9.53238 10.8529 10.2632 10.8529C10.992 10.8529 11.6757 10.5699 12.1879 10.0599L17.1367 5.10889C16.6224 4.71667 15.9794 4.48093 15.2828 4.48093ZM15.2828 3.29999H5.24156C2.90324 3.29999 1 5.20323 1 7.54155V13.9307C1 16.2712 2.90324 18.1723 5.24156 18.1723H15.2828C17.6211 18.1723 19.5244 16.2712 19.5244 13.9307V7.54151C19.5244 5.20319 17.6211 3.29999 15.2828 3.29999Z" fill="#184F68"/>
</svg>
