<svg width="20" height="21" viewBox="0 0 20 21" fill="none" xmlns="http://www.w3.org/2000/svg">
<g clip-path="url(#clip0_323_1081)">
<path d="M17.0711 13.2289C15.9819 12.1398 14.6855 11.3335 13.2711 10.8454C14.786 9.80198 15.7812 8.05577 15.7812 6.08124C15.7812 2.89346 13.1878 0.299988 10 0.299988C6.81223 0.299988 4.21875 2.89346 4.21875 6.08124C4.21875 8.05577 5.21402 9.80198 6.72898 10.8454C5.31453 11.3335 4.01813 12.1398 2.92895 13.2289C1.0402 15.1177 0 17.6289 0 20.3H1.5625C1.5625 15.6475 5.34754 11.8625 10 11.8625C14.6525 11.8625 18.4375 15.6475 18.4375 20.3H20C20 17.6289 18.9598 15.1177 17.0711 13.2289ZM10 10.3C7.67379 10.3 5.78125 8.40749 5.78125 6.08124C5.78125 3.75499 7.67379 1.86249 10 1.86249C12.3262 1.86249 14.2188 3.75499 14.2188 6.08124C14.2188 8.40749 12.3262 10.3 10 10.3Z" fill="#FF3C58"/>
</g>
<defs>
<clipPath id="clip0_323_1081">
<rect width="20" height="20" fill="white" transform="translate(0 0.299988)"/>
</clipPath>
</defs>
</svg>
