<svg width="24" height="24" viewBox="0 0 24 24" fill="none" xmlns="http://www.w3.org/2000/svg">
<path d="M21.9998 11.0123H4.41379L9.70679 5.71929C9.8023 5.62704 9.87848 5.5167 9.93089 5.39469C9.9833 5.27269 10.0109 5.14147 10.012 5.00869C10.0132 4.87591 9.98789 4.74423 9.93761 4.62133C9.88733 4.49844 9.81307 4.38679 9.71918 4.29289C9.62529 4.199 9.51364 4.12475 9.39074 4.07447C9.26784 4.02419 9.13616 3.99888 9.00339 4.00004C8.87061 4.00119 8.73939 4.02878 8.61738 4.08119C8.49538 4.1336 8.38503 4.20978 8.29279 4.30529L1.29279 11.3053C1.10532 11.4928 1 11.7471 1 12.0123C1 12.2775 1.10532 12.5318 1.29279 12.7193L8.29279 19.7193C8.48139 19.9014 8.73399 20.0022 8.99619 20C9.25838 19.9977 9.5092 19.8925 9.6946 19.7071C9.88001 19.5217 9.98518 19.2709 9.98746 19.0087C9.98974 18.7465 9.88894 18.4939 9.70679 18.3053L4.41379 13.0123H21.9998C22.265 13.0123 22.5194 12.9069 22.7069 12.7194C22.8944 12.5319 22.9998 12.2775 22.9998 12.0123C22.9998 11.7471 22.8944 11.4927 22.7069 11.3052C22.5194 11.1176 22.265 11.0123 21.9998 11.0123Z" fill="#184F68"/>
</svg>
