<svg width="24" height="24" viewBox="0 0 24 24" fill="none" xmlns="http://www.w3.org/2000/svg">
<g clip-path="url(#clip0_323_902)">
<path fill-rule="evenodd" clip-rule="evenodd" d="M11.1911 12.7187L9.87981 11.4559C9.814 11.3887 9.73536 11.3353 9.64855 11.299C9.56174 11.2627 9.46852 11.2441 9.37442 11.2445C9.28033 11.2449 9.18726 11.2641 9.10074 11.3011C9.01422 11.3381 8.936 11.3921 8.87073 11.4599C8.80546 11.5277 8.75446 11.6079 8.72075 11.6957C8.68704 11.7836 8.67131 11.8773 8.67448 11.9714C8.67766 12.0654 8.69968 12.1579 8.73925 12.2433C8.77881 12.3286 8.83511 12.4052 8.90481 12.4684L10.7122 14.2093C10.8446 14.3375 11.0221 14.4085 11.2064 14.4069C11.3907 14.4053 11.5669 14.3312 11.697 14.2007L15.1057 10.792C15.2376 10.6602 15.3117 10.4813 15.3117 10.2948C15.3117 10.1083 15.2376 9.92945 15.1057 9.79758C14.9738 9.6657 14.795 9.59162 14.6085 9.59162C14.422 9.59162 14.2431 9.6657 14.1113 9.79758L11.1912 12.7187H11.1911ZM12.0485 0C12.4623 0.0114317 12.856 0.180837 13.1489 0.473437L14.589 1.91466C14.6146 1.94375 14.6483 1.96467 14.6857 1.97479C14.7231 1.98491 14.7627 1.98378 14.7995 1.97156L16.7682 1.44427C17.1842 1.33301 17.6273 1.39143 18.0003 1.6067C18.3732 1.82196 18.6454 2.17647 18.7571 2.59233L19.2845 4.56108C19.2923 4.59886 19.311 4.63353 19.3383 4.66082C19.3656 4.6881 19.4003 4.70681 19.438 4.71464L21.4076 5.24198C21.8232 5.35418 22.1773 5.62649 22.3925 5.99927C22.6077 6.37206 22.6664 6.81493 22.5557 7.23089L22.0273 9.19964C22.0155 9.23648 22.0146 9.27593 22.0247 9.31327C22.0348 9.3506 22.0555 9.38423 22.0842 9.41011L23.5253 10.8512C23.8295 11.1558 24.0005 11.5687 24.0005 11.9993C24.0005 12.4298 23.8295 12.8427 23.5253 13.1473L22.084 14.5885C22.0553 14.6144 22.0346 14.6481 22.0245 14.6854C22.0145 14.7227 22.0154 14.7622 22.0271 14.799L22.5555 16.7678C22.6662 17.1838 22.6075 17.6266 22.3923 17.9994C22.1772 18.3722 21.823 18.6445 21.4074 18.7567L19.4379 19.284C19.4001 19.2919 19.3654 19.3106 19.3381 19.3379C19.3108 19.3652 19.2921 19.3998 19.2843 19.4376L18.7569 21.4064C18.6452 21.8222 18.373 22.1767 18.0001 22.392C17.6271 22.6072 17.184 22.6656 16.768 22.5544L14.7993 22.0271C14.7625 22.0149 14.7229 22.0137 14.6855 22.0239C14.6481 22.034 14.6144 22.0549 14.5888 22.084L13.1487 23.5246C12.8437 23.8286 12.4307 23.9993 12.0001 23.9993C11.5695 23.9993 11.1565 23.8286 10.8515 23.5246L9.41049 22.0834C9.38497 22.0545 9.35153 22.0337 9.31431 22.0236C9.27708 22.0135 9.23771 22.0145 9.20106 22.0265L7.23198 22.5538C6.81602 22.665 6.37292 22.6066 6.00001 22.3914C5.6271 22.1761 5.35489 21.8216 5.24317 21.4058L4.71578 19.437C4.70794 19.3992 4.6892 19.3645 4.66187 19.3372C4.63454 19.3099 4.59981 19.2913 4.56198 19.2835L2.59323 18.7562C2.17756 18.6441 1.82327 18.3719 1.608 17.999C1.39273 17.6262 1.33404 17.1833 1.44479 16.7672L1.97256 14.7987C1.98478 14.7619 1.98592 14.7224 1.97584 14.6849C1.96575 14.6475 1.94489 14.6139 1.91584 14.5882L0.474995 13.1472C0.170834 12.8425 0 12.4296 0 11.9991C0 11.5686 0.170834 11.1557 0.474995 10.8511L1.9164 9.40987C1.94529 9.38411 1.96601 9.35045 1.976 9.31305C1.986 9.27565 1.98483 9.23615 1.97265 9.19941L1.44489 7.23066C1.33414 6.81464 1.39284 6.3717 1.60811 5.99889C1.82338 5.62607 2.17766 5.35381 2.59332 5.24175L4.56207 4.71441C4.59991 4.70663 4.63463 4.68794 4.66196 4.66065C4.68929 4.63336 4.70803 4.59866 4.71587 4.56084L5.24326 2.59233C5.35504 2.17653 5.62726 1.82209 6.00015 1.60684C6.37304 1.39158 6.81611 1.33311 7.23207 1.44427L9.20115 1.97156C9.23778 1.98378 9.27721 1.9849 9.31447 1.97477C9.35174 1.96465 9.38518 1.94373 9.41059 1.91466L10.8518 0.473625C11.1446 0.18098 11.5382 0.0115079 11.952 0H12.0485ZM11.9997 17.2303C10.9651 17.2303 9.95368 16.9235 9.0934 16.3487C8.23313 15.7739 7.56263 14.9569 7.16668 14.001C6.77074 13.0451 6.66715 11.9933 6.869 10.9785C7.07084 9.96373 7.56907 9.03161 8.30068 8.30001C9.03228 7.56841 9.9644 7.07018 10.9792 6.86833C11.9939 6.66648 13.0458 6.77008 14.0016 7.16602C14.9575 7.56196 15.7745 8.23246 16.3494 9.09274C16.9242 9.95301 17.231 10.9644 17.231 11.9991C17.2296 13.386 16.6779 14.7158 15.6972 15.6965C14.7165 16.6773 13.3867 17.2289 11.9997 17.2303Z" fill="#2196F3"/>
</g>
<defs>
<clipPath id="clip0_323_902">
<rect width="24.0005" height="23.9993" fill="white"/>
</clipPath>
</defs>
</svg>
