<svg width="16" height="16" viewBox="0 0 16 16" fill="none" xmlns="http://www.w3.org/2000/svg">
<g clip-path="url(#clip0_117_926)">
<path d="M8.42634 3.61333L1.56634 10.4733C1.31356 10.7266 1.15381 11.0578 1.11301 11.4133L0.839677 13.8133C0.821859 13.9821 0.839843 14.1527 0.892453 14.3141C0.945063 14.4754 1.03112 14.6239 1.14499 14.7497C1.25887 14.8755 1.39801 14.9759 1.55332 15.0443C1.70864 15.1127 1.87664 15.1476 2.04634 15.1467H2.18634L4.58634 14.8733C4.94042 14.8324 5.27095 14.6753 5.52634 14.4267L12.3863 7.55999L8.42634 3.61333Z" fill="black"/>
<path d="M14.7063 3.03333L12.9663 1.29333C12.8208 1.14719 12.6478 1.03123 12.4573 0.952112C12.2668 0.87299 12.0626 0.83226 11.8563 0.83226C11.6501 0.83226 11.4458 0.87299 11.2554 0.952112C11.0649 1.03123 10.8919 1.14719 10.7463 1.29333L9.133 2.90666L13.093 6.86666L14.7063 5.25333C14.8525 5.10777 14.9684 4.93479 15.0475 4.74431C15.1267 4.55382 15.1674 4.34959 15.1674 4.14333C15.1674 3.93707 15.1267 3.73284 15.0475 3.54235C14.9684 3.35187 14.8525 3.17889 14.7063 3.03333Z" fill="black"/>
</g>
<defs>
<clipPath id="clip0_117_926">
<rect width="16" height="16" fill="white"/>
</clipPath>
</defs>
</svg>
