<svg width="24" height="24" viewBox="0 0 24 24" fill="none" xmlns="http://www.w3.org/2000/svg">
<path d="M22 11H4.41397L9.70697 5.70699C9.80248 5.61474 9.87866 5.5044 9.93107 5.38239C9.98348 5.26039 10.0111 5.12917 10.0122 4.99639C10.0134 4.86361 9.98807 4.73193 9.93779 4.60904C9.88751 4.48614 9.81326 4.37449 9.71936 4.28059C9.62547 4.1867 9.51382 4.11245 9.39092 4.06217C9.26803 4.01189 9.13635 3.98659 9.00357 3.98774C8.87079 3.98889 8.73957 4.01648 8.61757 4.06889C8.49556 4.1213 8.38522 4.19748 8.29297 4.29299L1.29297 11.293C1.1055 11.4805 1.00018 11.7348 1.00018 12C1.00018 12.2652 1.1055 12.5195 1.29297 12.707L8.29297 19.707C8.48157 19.8891 8.73417 19.9899 8.99637 19.9877C9.25857 19.9854 9.50938 19.8802 9.69479 19.6948C9.8802 19.5094 9.98536 19.2586 9.98764 18.9964C9.98992 18.7342 9.88913 18.4816 9.70697 18.293L4.41397 13H22C22.2652 13 22.5195 12.8946 22.7071 12.7071C22.8946 12.5196 23 12.2652 23 12C23 11.7348 22.8946 11.4804 22.7071 11.2929C22.5195 11.1053 22.2652 11 22 11Z" fill="#184F68"/>
</svg>
