<svg width="886" height="41" viewBox="0 0 886 41" fill="none" xmlns="http://www.w3.org/2000/svg">
<path d="M7.21357 31.6616L26.2309 32.4235C28.1138 32.5187 29.6202 31.0902 29.7143 29.1854L30.6558 5.47111C30.7499 3.1854 28.5846 1.47111 26.3251 2.13778L24.348 2.61397C23.9714 2.70921 23.7831 2.99492 23.7831 3.37588C23.7831 3.85207 24.2539 4.23302 24.7246 4.13778L25.7602 3.85207C27.4548 3.28064 29.1494 4.61397 29.1494 6.42349L28.3021 28.4235C28.208 29.8521 26.9841 30.9949 25.5719 30.8997L7.96673 30.233C6.55455 30.1378 5.4248 28.8997 5.51895 27.4711L5.61309 25.2806C5.61309 24.8997 5.33066 24.614 4.95408 24.614H4.76579C4.38921 24.614 4.10677 24.8997 4.10677 25.2806L4.01262 28.233C3.91848 30.0425 5.33066 31.5664 7.21357 31.6616Z" fill="#BF1B39"/>
<path d="M3.4478 30.3283C3.4478 30.3283 3.54195 30.3283 3.4478 30.3283C3.91853 31.6616 5.14242 32.614 6.5546 32.7092L27.4549 33.6616C30.5617 33.5664 31.1265 30.614 31.2207 29.3759V28.8997L32.1621 5.1854C32.2563 3.09017 30.7499 1.37588 28.7729 1.09017C28.7729 1.09017 34.3275 0.137785 34.3275 4.4235L33.1036 34.0425C33.1036 34.233 33.0094 34.4235 32.8211 34.5187C32.6329 34.7092 32.4446 34.7092 32.2563 34.7092L29.2436 34.614C28.867 34.614 28.6788 34.9949 28.9612 35.2806L30.2792 36.8997H24.7246L21.9003 34.7092C21.2413 34.5187 20.7705 34.3283 20.2998 34.3283L4.57755 33.5664C4.57755 33.5664 2.97707 33.5664 3.4478 30.3283Z" fill="#1B2459"/>
<path d="M31.1265 37.8521L12.9565 39.0902C12.2975 39.0902 11.6385 38.9949 10.9794 38.7092L8.71996 37.4711C8.24923 37.0902 8.53167 36.233 9.09654 36.233L31.1265 36.7092C31.2207 36.7092 31.3148 36.7092 31.409 36.8045C31.7856 37.0902 31.6914 37.7568 31.1265 37.8521Z" fill="#1B2459"/>
<path d="M16.7223 1.18542H20.7705C21.6179 1.18542 22.371 1.94733 22.371 2.80447V6.89971C22.371 7.75685 21.6179 8.51876 20.7705 8.51876H16.7223C15.875 8.51876 15.1218 7.75685 15.1218 6.89971V2.70923C15.1218 1.85209 15.875 1.18542 16.7223 1.18542Z" fill="#BF1B39"/>
<path d="M8.34334 17.4711V21.5663C8.34334 22.4235 7.59017 23.1854 6.74287 23.1854H2.60047C1.75316 23.1854 1 22.4235 1 21.5663V17.4711C1 16.614 1.75316 15.8521 2.60047 15.8521H6.64872C7.59017 15.8521 8.34334 16.614 8.34334 17.4711Z" fill="#BF1B39"/>
<path d="M2.60047 1.09015H8.15505C9.00235 1.09015 9.75552 1.85205 9.75552 2.7092V7.28063C9.75552 7.66158 9.94381 8.13777 10.2262 8.42348L14.4628 12.7092C14.7452 12.9949 15.1218 13.1854 15.5925 13.1854H20.1115C20.9588 13.1854 21.712 13.9473 21.712 14.8044V20.4235C21.712 21.2806 20.9588 22.0425 20.1115 22.0425H14.5569C13.7096 22.0425 12.9565 21.2806 12.9565 20.4235V15.8521C12.9565 15.4711 12.7682 14.9949 12.4857 14.7092L8.24919 10.4235C7.96675 10.1378 7.59017 9.94729 7.11945 9.94729H2.60047C1.75316 9.94729 1 9.18539 1 8.32824V2.7092C1 1.85205 1.75316 1.09015 2.60047 1.09015Z" fill="#1B2459"/>
<path d="M38.4698 30.614V6.04254H43.742V26.0425H55.9809V30.614H38.4698Z" fill="#1B2459"/>
<path d="M63.2301 31.0902C62.5711 31.0902 62.0062 30.9949 61.253 30.8997C60.594 30.7092 59.935 30.5187 59.276 30.1378C58.617 29.7568 58.1462 29.1854 57.7696 28.5187C57.3931 27.8521 57.2048 26.8997 57.2048 25.8521C57.2048 24.5187 57.4872 23.4711 58.0521 22.614C58.617 21.7568 59.4643 21.0902 60.4999 20.614C61.5355 20.1378 62.8535 19.7568 64.2657 19.5664C65.772 19.3759 67.3725 19.2807 69.1612 19.2807V17.8521C69.1612 17.2807 69.0671 16.8045 68.8788 16.4235C68.6905 16.0426 68.4081 15.6616 67.9373 15.4711C67.4666 15.1854 66.9017 15.0902 66.1486 15.0902C65.3954 15.0902 64.7364 15.1854 64.2657 15.3759C63.7949 15.5664 63.4184 15.8521 63.2301 16.1378C63.0418 16.4235 62.9476 16.8045 62.9476 17.0902V17.5664H58.1462C58.1462 17.4711 58.1462 17.3759 58.1462 17.1854C58.1462 17.0902 58.1462 16.8997 58.1462 16.8045C58.1462 15.6616 58.5228 14.7092 59.1818 13.9473C59.8408 13.1854 60.7823 12.5187 62.0062 12.1378C63.2301 11.6616 64.6423 11.4711 66.2427 11.4711C67.9373 11.4711 69.4437 11.6616 70.5734 12.1378C71.7032 12.614 72.6446 13.2807 73.3036 14.1378C73.9626 14.9949 74.2451 16.1378 74.2451 17.4711V26.0426C74.2451 26.5187 74.3392 26.8045 74.6217 26.9949C74.9041 27.1854 75.1865 27.2807 75.469 27.2807H76.5987V30.5187C76.3163 30.614 76.0338 30.8045 75.469 30.8997C74.9982 30.9949 74.3392 31.0902 73.6802 31.0902C73.0212 31.0902 72.3622 30.9949 71.8914 30.8045C71.3266 30.614 70.95 30.3283 70.5734 29.9473C70.1968 29.5664 70.0085 29.0902 69.8202 28.614H69.5378C69.1612 29.0902 68.6905 29.5664 68.0315 29.9473C67.4666 30.3283 66.8076 30.614 66.0544 30.8045C65.113 30.8997 64.2657 31.0902 63.2301 31.0902ZM64.9247 27.2807C65.5837 27.2807 66.1486 27.1854 66.7135 26.9949C67.2783 26.8045 67.6549 26.5187 68.0315 26.1378C68.4081 25.7568 68.6905 25.3759 68.8788 24.8997C69.0671 24.4235 69.1612 23.8521 69.1612 23.2807V22.233C67.8432 22.233 66.6193 22.3283 65.5837 22.5187C64.5481 22.7092 63.7008 22.9949 63.1359 23.4711C62.5711 23.9473 62.1945 24.5187 62.1945 25.2807C62.1945 25.7568 62.2886 26.0426 62.4769 26.4235C62.6652 26.7092 63.0418 26.9949 63.4184 27.1854C63.8891 27.1854 64.3598 27.2807 64.9247 27.2807Z" fill="#1B2459"/>
<path d="M88.5552 31.0902C87.3313 31.0902 86.2015 30.8045 85.2601 30.3283C84.2245 29.8521 83.4713 29.0902 82.8123 28.0426H82.5299L82.1533 30.614H78.105V4.70923H83.0006V13.8521H83.1889C83.5655 13.2807 84.0362 12.8045 84.6011 12.4235C85.1659 12.0426 85.7308 11.7568 86.484 11.5664C87.143 11.3759 87.8962 11.2807 88.7435 11.2807C90.2498 11.2807 91.4737 11.6616 92.6034 12.3283C93.7332 12.9949 94.5805 14.1378 95.1453 15.5664C95.8044 16.9949 96.0868 18.8997 96.0868 21.1854C96.0868 23.4711 95.8044 25.2807 95.1453 26.8045C94.5805 28.233 93.639 29.3759 92.6034 30.0426C91.4737 30.7092 90.1556 31.0902 88.5552 31.0902ZM87.0488 26.9949C88.0844 26.9949 88.8376 26.8045 89.4025 26.4235C89.9674 26.0426 90.4381 25.4711 90.6264 24.614C90.9088 23.8521 91.0029 22.8045 91.0029 21.6616V20.8045C91.0029 19.5664 90.9088 18.614 90.6264 17.8521C90.3439 17.0902 89.9674 16.4235 89.4025 16.0426C88.8376 15.6616 88.0844 15.4711 87.0488 15.4711C86.2957 15.4711 85.7308 15.5664 85.2601 15.8521C84.7894 16.1378 84.3186 16.4235 84.0362 16.8997C83.7538 17.3759 83.4713 17.9473 83.283 18.614C83.0947 19.2807 83.0006 20.0426 83.0006 20.8997V21.5664C83.0006 22.7092 83.1889 23.6616 83.4713 24.5188C83.7538 25.3759 84.2245 25.9473 84.7894 26.4235C85.3542 26.7092 86.1074 26.9949 87.0488 26.9949Z" fill="#1B2459"/>
<path d="M105.972 31.0902C104.654 31.0902 103.524 30.8997 102.489 30.614C101.453 30.3282 100.7 29.9473 100.041 29.4711C99.3819 28.9949 98.9112 28.3282 98.5346 27.6616C98.158 26.9949 98.0638 26.1378 98.0638 25.2806C98.0638 25.1854 98.0638 25.0902 98.0638 24.9949C98.0638 24.8997 98.0638 24.8044 98.0638 24.7092H101.736C101.736 24.8044 101.736 24.8044 101.736 24.8997C101.736 24.9949 101.736 24.9949 101.736 25.0902C101.736 25.8521 101.924 26.4235 102.3 26.8997C102.677 27.3759 103.242 27.6616 103.901 27.8521C104.56 28.0425 105.313 28.1378 106.16 28.1378C106.914 28.1378 107.478 28.0425 108.137 27.8521C108.702 27.6616 109.267 27.3759 109.644 27.0902C110.02 26.7092 110.209 26.233 110.209 25.7568C110.209 24.9949 109.926 24.5187 109.455 24.1378C108.985 23.7568 108.326 23.4711 107.478 23.1854C106.631 22.9949 105.878 22.7092 104.936 22.4235C104.183 22.233 103.336 21.9473 102.583 21.7568C101.83 21.4711 101.076 21.1854 100.512 20.8044C99.8526 20.4235 99.3819 19.8521 99.0053 19.2806C98.6287 18.614 98.4404 17.8521 98.4404 16.9949C98.4404 16.1378 98.6287 15.3759 99.0053 14.7092C99.3819 14.0425 99.9468 13.4711 100.606 12.9949C101.265 12.5187 102.112 12.233 103.054 11.9473C103.995 11.6616 105.031 11.5663 106.16 11.5663C107.29 11.5663 108.326 11.6616 109.267 11.9473C110.209 12.233 110.962 12.5187 111.527 12.9949C112.186 13.4711 112.656 13.9473 112.939 14.614C113.315 15.2806 113.41 15.9473 113.41 16.614C113.41 16.8044 113.41 16.8997 113.41 17.0902C113.41 17.2806 113.41 17.3759 113.41 17.3759H109.832V17.0902C109.832 16.614 109.738 16.1378 109.455 15.7568C109.173 15.3759 108.796 15.0902 108.232 14.8044C107.667 14.5187 106.914 14.4235 105.972 14.4235C105.313 14.4235 104.842 14.5187 104.372 14.614C103.901 14.7092 103.524 14.8997 103.242 15.0902C102.959 15.2806 102.677 15.4711 102.583 15.7568C102.395 16.0425 102.395 16.3282 102.395 16.614C102.395 17.1854 102.583 17.5663 102.959 17.8521C103.336 18.1378 103.901 18.4235 104.466 18.614C105.125 18.8044 105.784 18.9949 106.537 19.2806C107.384 19.5663 108.232 19.7568 109.079 20.0425C109.926 20.3282 110.773 20.614 111.527 20.9949C112.28 21.3759 112.845 21.9473 113.315 22.614C113.786 23.2806 113.974 24.1378 113.974 25.2806C113.974 26.3282 113.786 27.1854 113.41 27.9473C113.033 28.7092 112.468 29.2806 111.715 29.7568C110.962 30.233 110.114 30.614 109.173 30.8044C108.137 30.8997 107.102 31.0902 105.972 31.0902Z" fill="#BF1B39"/>
<path d="M129.038 36.8044V28.3283H128.755C128.379 28.9949 127.908 29.4711 127.343 29.8521C126.778 30.233 126.119 30.5187 125.46 30.7092C124.707 30.8997 123.954 30.9949 123.201 30.9949C121.788 30.9949 120.565 30.614 119.435 29.9473C118.305 29.2806 117.458 28.1378 116.893 26.7092C116.234 25.2806 115.951 23.3759 115.951 21.1854C115.951 18.8997 116.234 16.9949 116.893 15.5664C117.458 14.1378 118.305 12.9949 119.435 12.3283C120.565 11.6616 121.883 11.2806 123.389 11.2806C124.613 11.2806 125.743 11.5664 126.684 12.0425C127.72 12.5187 128.473 13.2806 129.132 14.3283H129.414L129.791 11.7568H132.803V36.8044H129.038ZM124.425 27.8521C125.178 27.8521 125.837 27.7568 126.402 27.4711C126.966 27.1854 127.437 26.8997 127.814 26.3283C128.19 25.8521 128.567 25.1854 128.755 24.3283C128.944 23.4711 129.038 22.5187 129.038 21.3759V20.8997C129.038 19.5664 128.849 18.4235 128.567 17.3759C128.19 16.4235 127.72 15.6616 127.061 15.1854C126.402 14.7092 125.46 14.4235 124.425 14.4235C123.389 14.4235 122.448 14.614 121.788 15.0902C121.129 15.5664 120.659 16.233 120.282 17.0902C119.906 18.0425 119.811 19.2806 119.811 20.7092V21.3759C119.811 22.8044 120 23.9473 120.282 24.8997C120.565 25.8521 121.129 26.5187 121.788 26.9949C122.448 27.5664 123.389 27.8521 124.425 27.8521Z" fill="#BF1B39"/>
<path d="M142.689 31.0902C140.9 31.0902 139.394 30.614 138.358 29.6616C137.228 28.7092 136.663 26.9949 136.663 24.7092V11.7568H140.335V24.0426C140.335 24.8045 140.429 25.3759 140.618 25.8521C140.806 26.3283 141.088 26.7092 141.371 26.9949C141.747 27.2806 142.124 27.4711 142.5 27.5664C142.971 27.6616 143.442 27.7568 144.007 27.7568C144.854 27.7568 145.607 27.5664 146.36 27.0902C147.019 26.7092 147.584 26.0426 148.055 25.3759C148.526 24.614 148.714 23.7568 148.714 22.8045V11.7568H152.386V30.614H149.279L148.996 27.9473H148.714C148.243 28.614 147.773 29.1854 147.114 29.6616C146.455 30.1378 145.796 30.4235 145.042 30.7092C144.383 30.8997 143.536 31.0902 142.689 31.0902Z" fill="#BF1B39"/>
<path d="M156.34 8.51875V4.70923H160.011V8.51875H156.34ZM156.34 30.614V11.7568H160.011V30.614H156.34Z" fill="#BF1B39"/>
<path d="M164.06 30.614V11.7568H167.072L167.355 14.8044H167.543C167.731 14.233 168.014 13.6616 168.39 13.0902C168.767 12.5187 169.144 12.1378 169.708 11.7568C170.273 11.3759 170.932 11.2806 171.78 11.2806C172.156 11.2806 172.533 11.2806 172.815 11.3759C173.098 11.4711 173.38 11.4711 173.474 11.5664V15.0902H172.25C171.497 15.0902 170.838 15.1854 170.273 15.4711C169.708 15.7568 169.238 16.0425 168.861 16.5187C168.485 16.9949 168.202 17.5664 168.014 18.233C167.826 18.8997 167.731 19.6616 167.731 20.5187V30.614H164.06Z" fill="#BF1B39"/>
<path d="M182.983 31.0901C181.1 31.0901 179.5 30.7092 178.182 30.0425C176.863 29.3759 175.922 28.233 175.263 26.8044C174.604 25.3759 174.227 23.4711 174.227 21.2806C174.227 18.9949 174.604 17.1854 175.263 15.6616C175.922 14.233 176.863 13.1854 178.182 12.4235C179.5 11.7568 181.1 11.3759 183.077 11.3759C184.866 11.3759 186.372 11.7568 187.502 12.4235C188.726 13.0901 189.573 14.1378 190.232 15.5663C190.891 16.9949 191.174 18.7092 191.174 20.8044V22.233H178.087C178.087 23.5663 178.37 24.7092 178.652 25.5663C179.029 26.4235 179.5 27.0901 180.253 27.5663C181.006 27.9473 181.853 28.233 182.983 28.233C183.642 28.233 184.301 28.1378 184.866 27.9473C185.431 27.7568 185.901 27.4711 186.278 27.1854C186.655 26.8044 186.937 26.4235 187.125 25.9473C187.314 25.4711 187.408 24.8997 187.408 24.233H190.985C190.985 25.3759 190.797 26.3282 190.42 27.1854C190.044 28.0425 189.479 28.8044 188.726 29.3759C187.973 29.9473 187.125 30.4235 186.184 30.7092C185.337 30.8997 184.207 31.0901 182.983 31.0901ZM178.182 19.3759H187.314C187.314 18.4235 187.219 17.6616 187.031 16.9949C186.843 16.3282 186.56 15.852 186.184 15.4711C185.807 15.0901 185.337 14.8044 184.866 14.614C184.301 14.4235 183.736 14.3282 183.077 14.3282C182.041 14.3282 181.194 14.5187 180.535 14.8997C179.876 15.2806 179.311 15.852 178.935 16.6139C178.464 17.2806 178.276 18.233 178.182 19.3759Z" fill="#BF1B39"/>
</svg>
