<svg width="28" height="29" viewBox="0 0 28 29" fill="none" xmlns="http://www.w3.org/2000/svg">
<g clip-path="url(#clip0_323_1041)">
<circle cx="14" cy="14.6144" r="13.125" fill="white" stroke="#A1AEBE" stroke-width="1.75"/>
<path d="M8.904 21.3344H15.848C14.616 20.6624 13.776 19.3744 13.776 17.8624C13.776 15.6784 15.568 13.8864 17.752 13.8864H17.808V9.35041C17.808 8.56641 17.136 7.89441 16.352 7.89441H8.904C8.12 7.89441 7.448 8.56641 7.448 9.35041V19.8784C7.448 20.6624 8.064 21.3344 8.904 21.3344ZM10.192 10.1344H15.008C15.344 10.1344 15.568 10.4144 15.568 10.6944C15.568 11.0304 15.344 11.2544 15.008 11.2544H10.192C9.856 11.2544 9.632 11.0304 9.632 10.6944C9.632 10.4144 9.912 10.1344 10.192 10.1344ZM10.192 12.7664H13.328C13.664 12.7664 13.888 13.0464 13.888 13.3264C13.888 13.6624 13.664 13.8864 13.328 13.8864H10.192C9.856 13.8864 9.632 13.6624 9.632 13.3264C9.632 12.9904 9.912 12.7664 10.192 12.7664Z" fill="#5C6E84"/>
<path d="M17.7522 15.0624C16.1842 15.0624 14.8962 16.3504 14.8962 17.9184C14.8962 19.4864 16.1842 20.7744 17.7522 20.7744C19.3202 20.7744 20.6082 19.4864 20.6082 17.9184C20.6082 16.3504 19.3202 15.0624 17.7522 15.0624ZM19.1522 17.6384L17.7522 18.9824C17.6402 19.0944 17.5282 19.1504 17.3602 19.1504C17.1922 19.1504 17.0802 19.0944 16.9682 18.9824L16.2962 18.2544C16.0722 18.0304 16.0722 17.6944 16.3522 17.4704C16.5762 17.2464 16.9122 17.2464 17.1362 17.4704L17.4162 17.8064L18.4242 16.8544C18.6482 16.6304 18.9842 16.6304 19.2082 16.8544C19.3762 17.0224 19.3762 17.4144 19.1522 17.6384Z" fill="#5C6E84"/>
</g>
<defs>
<clipPath id="clip0_323_1041">
<rect width="28" height="28" fill="white" transform="translate(0 0.61438)"/>
</clipPath>
</defs>
</svg>
