<svg width="27" height="29" viewBox="0 0 27 29" fill="none" xmlns="http://www.w3.org/2000/svg">
<g clip-path="url(#clip0_117_831)">
<path d="M11.32 28.4062C13.3484 28.4062 15.0452 26.91 15.4349 24.9297H7.20508C7.59493 26.91 9.29175 28.4062 11.32 28.4062Z" fill="#C5C9D4"/>
<path d="M19.805 17.3924C19.7759 17.3924 19.7491 17.3971 19.7199 17.3971C14.7796 17.3971 10.7601 13.2381 10.7601 8.12641C10.7601 6.11801 11.3872 4.26282 12.4401 2.74225V1.75259C12.4401 1.11177 11.9382 0.593811 11.3199 0.593811C10.7018 0.593811 10.2 1.11177 10.2 1.75259V3.00431C6.40646 3.5698 3.48 6.94556 3.48 11.0235V14.2543C3.48 16.5477 2.50895 18.7124 0.805366 20.2027C0.36978 20.5886 0.119995 21.1495 0.119995 21.7428C0.119995 22.8612 0.999165 23.7709 2.07993 23.7709H20.5599C21.6409 23.7709 22.5201 22.8612 22.5201 21.7428C22.5201 21.1495 22.2703 20.5886 21.8234 20.1935C20.9408 19.4205 20.2599 18.4587 19.805 17.3924V17.3924Z" fill="#C5C9D4"/>
<path d="M19.7202 0.593811C15.7062 0.593811 12.4403 3.97297 12.4403 8.12641C12.4403 12.2796 15.7062 15.6588 19.7202 15.6588C23.7344 15.6588 27.0002 12.2796 27.0002 8.12641C27.0002 3.97297 23.7344 0.593811 19.7202 0.593811V0.593811ZM20.8403 10.7338C20.8403 11.2136 20.464 11.603 20.0003 11.603C19.5366 11.603 19.1603 11.2136 19.1603 10.7338V6.96742H18.6002C18.1366 6.96742 17.7602 6.57804 17.7602 6.09828C17.7602 5.61851 18.1366 5.22914 18.6002 5.22914H20.0003C20.464 5.22914 20.8403 5.61851 20.8403 6.09828V10.7338Z" fill="#273480"/>
</g>
<defs>
<clipPath id="clip0_117_831">
<rect width="26.88" height="27.8124" fill="white" transform="translate(0.119995 0.593811)"/>
</clipPath>
</defs>
</svg>
