<svg width="17" height="17" viewBox="0 0 17 17" fill="none" xmlns="http://www.w3.org/2000/svg">
<path d="M8.59334 4.08105L1.73334 10.9411C1.48055 11.1943 1.3208 11.5256 1.28 11.8811L1.00667 14.2811C0.988851 14.4498 1.00683 14.6205 1.05945 14.7818C1.11206 14.9432 1.19811 15.0916 1.31199 15.2174C1.42586 15.3433 1.565 15.4437 1.72032 15.5121C1.87563 15.5805 2.04363 15.6153 2.21334 15.6144H2.35334L4.75334 15.3411C5.10741 15.3001 5.43795 15.143 5.69334 14.8944L12.5533 8.02772L8.59334 4.08105Z" fill="#FF3C58"/>
<path d="M14.8734 3.50106L13.1334 1.76106C12.9878 1.61492 12.8148 1.49896 12.6244 1.41984C12.4339 1.34072 12.2296 1.29999 12.0234 1.29999C11.8171 1.29999 11.6129 1.34072 11.4224 1.41984C11.2319 1.49896 11.0589 1.61492 10.9134 1.76106L9.30005 3.37439L13.26 7.33439L14.8734 5.72106C15.0195 5.5755 15.1355 5.40252 15.2146 5.21203C15.2937 5.02155 15.3345 4.81732 15.3345 4.61106C15.3345 4.4048 15.2937 4.20056 15.2146 4.01008C15.1355 3.8196 15.0195 3.64662 14.8734 3.50106Z" fill="#FF3C58"/>
</svg>
