<svg width="17" height="17" viewBox="0 0 17 17" fill="none" xmlns="http://www.w3.org/2000/svg">
<g clip-path="url(#clip0_323_1021)">
<path d="M14.3234 10.6432C13.452 9.77186 12.4149 9.12683 11.2833 8.73636C12.4953 7.90164 13.2915 6.50467 13.2915 4.92505C13.2915 2.37483 11.2167 0.300049 8.6665 0.300049C6.11629 0.300049 4.0415 2.37483 4.0415 4.92505C4.0415 6.50467 4.83772 7.90164 6.04969 8.73636C4.91813 9.12683 3.881 9.77186 3.00966 10.6432C1.49866 12.1542 0.666504 14.1632 0.666504 16.3H1.9165C1.9165 12.5781 4.94454 9.55005 8.6665 9.55005C12.3885 9.55005 15.4165 12.5781 15.4165 16.3H16.6665C16.6665 14.1632 15.8343 12.1542 14.3234 10.6432ZM8.6665 8.30005C6.80554 8.30005 5.2915 6.78605 5.2915 4.92505C5.2915 3.06405 6.80554 1.55005 8.6665 1.55005C10.5275 1.55005 12.0415 3.06405 12.0415 4.92505C12.0415 6.78605 10.5275 8.30005 8.6665 8.30005Z" fill="#184F68"/>
</g>
<defs>
<clipPath id="clip0_323_1021">
<rect width="16" height="16" fill="white" transform="translate(0.666504 0.300049)"/>
</clipPath>
</defs>
</svg>
